<svg width="1080" height="1080" viewBox="0 0 1080 1080" fill="none" xmlns="http://www.w3.org/2000/svg">
<rect width="1080" height="1080" fill="white"/>
<path d="M136.128 913V748.136H248.256V769.896H164.032V819.816H238.784V841.32H164.032V913H136.128ZM270.378 913V748.136H298.282V891.496H382.762V913H270.378ZM416.644 913V851.816L357.508 748.136H386.436L430.468 828.264L474.5 748.136H503.428L444.292 851.816V913H416.644ZM525.628 913V748.136H637.756V769.896H553.532V819.816H628.284V841.32H553.532V913H525.628ZM634.514 913L697.49 748.136H728.722L791.186 913H762.514L746.13 870.504H679.826L663.442 913H634.514ZM684.178 849H741.522L712.85 773.48L684.178 849ZM818.628 913V748.136H894.404C912.836 748.136 926.233 752.915 934.596 762.472C943.129 771.859 947.396 784.659 947.396 800.872C947.396 812.477 944.495 822.376 938.692 830.568C932.889 838.76 924.527 844.477 913.604 847.72C916.676 849.939 919.065 852.328 920.772 854.888C922.479 857.448 924.185 860.861 925.892 865.128L946.628 913H917.956L897.732 866.92C895.855 862.483 893.551 859.325 890.82 857.448C888.26 855.571 883.823 854.632 877.508 854.632H846.532V913H818.628ZM846.532 832.104H886.98C897.049 832.104 904.985 829.629 910.788 824.68C916.591 819.731 919.492 811.795 919.492 800.872C919.492 780.221 909.508 769.896 889.54 769.896H846.532V832.104Z" fill="black"/>
<path fill-rule="evenodd" clip-rule="evenodd" d="M426.672 234.47C419.154 226.761 410.247 224.04 401.628 224.911C393.092 225.775 384.999 230.137 378.832 236.304C372.664 242.472 368.266 250.601 367.31 259.208C366.345 267.89 368.907 276.923 376.424 284.63L380.003 281.139C373.554 274.527 371.476 266.987 372.279 259.76C373.09 252.457 376.868 245.339 382.367 239.839C387.868 234.339 394.934 230.614 402.131 229.886C409.245 229.166 416.646 231.351 423.093 237.961L426.672 234.47ZM398.071 270.213C394.166 266.308 394.166 259.976 398.071 256.071C401.976 252.166 408.308 252.166 412.213 256.071L486.828 330.686C494.851 325.205 504.551 322 515 322H565C575.187 322 584.662 325.046 592.565 330.278L666.772 256.071C670.677 252.166 677.009 252.166 680.914 256.071C684.819 259.976 684.819 266.308 680.914 270.213L606.71 344.417C611.949 352.323 615 361.805 615 372V422C615 432.449 611.795 442.15 606.314 450.172L680.914 524.772C684.819 528.677 684.819 535.009 680.914 538.914C677.009 542.819 670.677 542.819 666.772 538.914L591.969 464.111C584.188 469.104 574.932 472 565 472H515C504.805 472 495.323 468.949 487.417 463.71L412.213 538.914C408.308 542.819 401.976 542.819 398.071 538.914C394.166 535.009 394.166 528.677 398.071 524.772L473.278 449.565C468.046 441.662 465 432.187 465 422V372C465 362.068 467.896 352.812 472.889 345.031L398.071 270.213ZM476.518 348.66C472.382 355.465 470 363.455 470 372V422C470 430.802 472.527 439.013 476.895 445.948L525.35 397.492L476.518 348.66ZM491.033 460.094C497.973 464.469 506.191 467 515 467H565C573.546 467 581.535 464.618 588.34 460.482L539.492 411.635L491.033 460.094ZM602.709 446.567C607.32 439.503 610 431.065 610 422V372C610 363.191 607.469 354.973 603.094 348.033L553.635 397.492L602.709 446.567ZM588.948 333.895C582.013 329.527 573.802 327 565 327H515C505.935 327 497.497 329.68 490.433 334.291L539.492 383.35L588.948 333.895ZM711.973 259.628C712.845 268.247 710.123 277.154 702.415 284.672L698.924 281.093C705.534 274.646 707.718 267.245 706.999 260.131C706.271 252.934 702.546 245.868 697.045 240.367C691.546 234.868 684.428 231.09 677.125 230.279C669.898 229.476 662.358 231.554 655.746 238.003L652.255 234.424C659.961 226.907 668.994 224.345 677.677 225.31C686.284 226.266 694.413 230.664 700.581 236.832C706.748 242.999 711.11 251.092 711.973 259.628ZM376.47 510.212C368.761 517.731 366.04 526.638 366.911 535.257C367.775 543.793 372.137 551.886 378.304 558.052C384.472 564.22 392.601 568.619 401.208 569.575C409.89 570.54 418.923 567.977 426.63 560.461L423.139 556.881C416.527 563.33 408.987 565.408 401.76 564.605C394.457 563.794 387.339 560.016 381.839 554.517C376.339 549.017 372.614 541.951 371.886 534.754C371.166 527.639 373.351 520.239 379.961 513.792L376.47 510.212ZM677.257 569.973C668.638 570.845 659.731 568.124 652.212 560.415L655.792 556.924C662.239 563.534 669.639 565.718 676.754 564.999C683.951 564.271 691.017 560.546 696.517 555.045C702.016 549.546 705.794 542.428 706.606 535.125C707.409 527.898 705.33 520.358 698.882 513.746L702.461 510.255C709.977 517.961 712.54 526.994 711.575 535.677C710.619 544.284 706.22 552.413 700.053 558.581C693.886 564.748 685.793 569.11 677.257 569.973Z" fill="black"/>
</svg>
