<svg width="347" height="347" viewBox="0 0 347 347" fill="none" xmlns="http://www.w3.org/2000/svg">
<path fill-rule="evenodd" clip-rule="evenodd" d="M60.6721 10.4697C53.1537 2.76102 44.2467 0.0397066 35.6277 0.911301C27.0916 1.77452 18.9988 6.13686 12.8319 12.3038C6.664 18.4717 2.26582 26.6008 1.30952 35.2075C0.344768 43.8904 2.90705 52.9232 10.4235 60.6299L14.003 57.1389C7.55407 50.5267 5.47594 42.9867 6.27894 35.7597C7.09039 28.4566 10.8681 21.3387 16.3675 15.8393C21.8678 10.3389 28.9337 6.61374 36.1308 5.88593C43.245 5.1665 50.6457 7.35069 57.0927 13.9608L60.6721 10.4697ZM32.0711 46.2132C28.1659 42.308 28.1659 35.9763 32.0711 32.0711C35.9764 28.1658 42.308 28.1658 46.2132 32.0711L120.828 106.686C128.851 101.205 138.551 98 149 98H199C209.187 98 218.662 101.046 226.565 106.278L300.772 32.0711C304.677 28.1659 311.009 28.1659 314.914 32.0711C318.819 35.9764 318.819 42.308 314.914 46.2132L240.71 120.417C245.949 128.323 249 137.805 249 148V198C249 208.449 245.795 218.15 240.314 226.172L314.914 300.772C318.819 304.677 318.819 311.009 314.914 314.914C311.009 318.819 304.677 318.819 300.772 314.914L225.969 240.111C218.188 245.104 208.932 248 199 248H149C138.805 248 129.323 244.949 121.417 239.71L46.2132 314.914C42.308 318.819 35.9763 318.819 32.0711 314.914C28.1659 311.009 28.1659 304.677 32.0711 300.772L107.278 225.565C102.046 217.662 99 208.187 99 198V148C99 138.068 101.896 128.812 106.889 121.031L32.0711 46.2132ZM110.518 124.66C106.382 131.465 104 139.455 104 148V198C104 206.802 106.527 215.013 110.895 221.948L159.35 173.492L110.518 124.66ZM125.033 236.094C131.973 240.469 140.191 243 149 243H199C207.546 243 215.535 240.618 222.34 236.482L173.492 187.635L125.033 236.094ZM236.709 222.567C241.32 215.503 244 207.065 244 198V148C244 139.191 241.469 130.973 237.094 124.033L187.635 173.492L236.709 222.567ZM222.948 109.895C216.013 105.527 207.802 103 199 103H149C139.935 103 131.497 105.68 124.433 110.291L173.492 159.35L222.948 109.895ZM345.973 35.6277C346.845 44.2467 344.123 53.1537 336.415 60.6721L332.924 57.0927C339.534 50.6457 341.718 43.245 340.999 36.1308C340.271 28.9337 336.546 21.8678 331.045 16.3675C325.546 10.8681 318.428 7.09039 311.125 6.27894C303.898 5.47594 296.358 7.55407 289.746 14.003L286.255 10.4235C293.961 2.90706 302.994 0.344769 311.677 1.30952C320.284 2.26582 328.413 6.664 334.581 12.8319C340.748 18.9988 345.11 27.0916 345.973 35.6277ZM10.4697 286.212C2.76102 293.731 0.0397066 302.638 0.911301 311.257C1.77452 319.793 6.13686 327.886 12.3038 334.052C18.4717 340.22 26.6008 344.619 35.2075 345.575C43.8904 346.54 52.9232 343.977 60.6299 336.461L57.1389 332.881C50.5267 339.33 42.9867 341.408 35.7597 340.605C28.4566 339.794 21.3387 336.016 15.8393 330.517C10.3389 325.017 6.61374 317.951 5.88593 310.754C5.1665 303.639 7.35069 296.239 13.9608 289.792L10.4697 286.212ZM311.257 345.973C302.638 346.845 293.731 344.124 286.212 336.415L289.792 332.924C296.239 339.534 303.639 341.718 310.754 340.999C317.951 340.271 325.017 336.546 330.517 331.045C336.016 325.546 339.794 318.428 340.606 311.125C341.409 303.898 339.33 296.358 332.882 289.746L336.461 286.255C343.977 293.961 346.54 302.994 345.575 311.677C344.619 320.284 340.22 328.413 334.053 334.581C327.886 340.748 319.793 345.11 311.257 345.973Z" fill="white"/>
</svg>
